HIERARCHY
ROOT Hips
{
	OFFSET 0.000000 121.760803 0.000000
	CHANNELS 6 Xposition Yposition Zposition Xrotation Yrotation Zrotation 
	JOINT Spine
	{
		OFFSET 0.072000 7.257294 -0.789700
		CHANNELS 3 Xrotation Yrotation Zrotation
		JOINT Spine1
		{
			OFFSET 0.000000 12.508769 -0.658067
			CHANNELS 3 Xrotation Yrotation Zrotation
			JOINT Spine1_split
			{
				OFFSET 0.000000 12.508769 -0.658067
				CHANNELS 3 Xrotation Yrotation Zrotation
				JOINT Spine2
				{
					OFFSET 0.000000 12.508769 -0.658067
					CHANNELS 3 Xrotation Yrotation Zrotation
					JOINT Neck
					{
						OFFSET 0.000000 14.033295 7.520400
						CHANNELS 3 Xrotation Yrotation Zrotation
						JOINT Head
						{
							OFFSET 0.000000 8.198502 5.703100
							CHANNELS 3 Xrotation Yrotation Zrotation
							JOINT HeadTop_End
							{
								OFFSET 0.000000 17.760803 13.332701
								CHANNELS 3 Xrotation Yrotation Zrotation
								End Site
								{
									OFFSET 0.000000 0.000000 0.000000
								}
							}
						}
					}
					JOINT LeftShoulder
					{
						OFFSET 6.292450 5.785301 -0.669000
						CHANNELS 3 Xrotation Yrotation Zrotation
						JOINT LeftShoulder_split
						{
							OFFSET 6.292450 5.785301 -0.669000
							CHANNELS 3 Xrotation Yrotation Zrotation
							JOINT LeftArm
							{
								OFFSET 13.907140 -6.093903 1.965100
								CHANNELS 3 Xrotation Yrotation Zrotation
								JOINT LeftForeArm
								{
									OFFSET 34.140198 0.000000 0.000000
									CHANNELS 3 Xrotation Yrotation Zrotation
									JOINT LeftHand
									{
										OFFSET 40.960209 0.000000 0.000000
										CHANNELS 3 Xrotation Yrotation Zrotation
										JOINT LeftHandThumb1
										{
											OFFSET 10.006996 -7.170425 9.573125
											CHANNELS 3 Xrotation Yrotation Zrotation
											JOINT LeftHandThumb2
											{
												OFFSET 1.835007 -1.059448 1.059443
												CHANNELS 3 Xrotation Yrotation Zrotation
												JOINT LeftHandThumb3
												{
													OFFSET 2.112267 -1.219513 1.219518
													CHANNELS 3 Xrotation Yrotation Zrotation
													JOINT LeftHandThumb4
													{
														OFFSET 4.843811 -2.796570 2.796576
														CHANNELS 3 Xrotation Yrotation Zrotation
														End Site
														{
															OFFSET 0.000000 0.000000 0.000000
														}
													}
												}
											}
										}
										JOINT LeftHandIndex1
										{
											OFFSET 18.389847 -0.922348 4.596882
											CHANNELS 3 Xrotation Yrotation Zrotation
											JOINT LeftHandIndex2
											{
												OFFSET 4.711273 0.000000 0.000000
												CHANNELS 3 Xrotation Yrotation Zrotation
												JOINT LeftHandIndex3
												{
													OFFSET 2.886131 0.000000 0.000000
													CHANNELS 3 Xrotation Yrotation Zrotation
													JOINT LeftHandIndex4
													{
														OFFSET 6.145912 0.000000 0.000000
														CHANNELS 3 Xrotation Yrotation Zrotation
														End Site
														{
															OFFSET 0.000000 0.000000 0.000000
														}
													}
												}
											}
										}
										JOINT LeftHandMiddle1
										{
											OFFSET 18.013008 0.000000 0.000000
											CHANNELS 3 Xrotation Yrotation Zrotation
											JOINT LeftHandMiddle2
											{
												OFFSET 4.946693 0.000000 0.000000
												CHANNELS 3 Xrotation Yrotation Zrotation
												JOINT LeftHandMiddle3
												{
													OFFSET 3.342232 0.000000 0.000000
													CHANNELS 3 Xrotation Yrotation Zrotation
													JOINT LeftHandMiddle4
													{
														OFFSET 4.461754 0.000000 0.000000
														CHANNELS 3 Xrotation Yrotation Zrotation
														End Site
														{
															OFFSET 0.000000 0.000000 0.000000
														}
													}
												}
											}
										}
										JOINT LeftHandRing1
										{
											OFFSET 15.849892 -0.102921 -4.126150
											CHANNELS 3 Xrotation Yrotation Zrotation
											JOINT LeftHandRing2
											{
												OFFSET 3.527054 0.000000 0.000000
												CHANNELS 3 Xrotation Yrotation Zrotation
												JOINT LeftHandRing3
												{
													OFFSET 2.961098 0.000000 0.000000
													CHANNELS 3 Xrotation Yrotation Zrotation
													JOINT LeftHandRing4
													{
														OFFSET 4.927200 0.000000 0.000000
														CHANNELS 3 Xrotation Yrotation Zrotation
														End Site
														{
															OFFSET 0.000000 0.000000 0.000000
														}
													}
												}
											}
										}
										JOINT LeftHandPinky1
										{
											OFFSET 12.791824 -0.832031 -6.799156
											CHANNELS 3 Xrotation Yrotation Zrotation
											JOINT LeftHandPinky2
											{
												OFFSET 3.327133 0.000000 0.000000
												CHANNELS 3 Xrotation Yrotation Zrotation
												JOINT LeftHandPinky3
												{
													OFFSET 3.014900 0.000000 0.000000
													CHANNELS 3 Xrotation Yrotation Zrotation
													JOINT LeftHandPinky4
													{
														OFFSET 5.847786 0.000000 0.000000
														CHANNELS 3 Xrotation Yrotation Zrotation
														End Site
														{
															OFFSET 0.000000 0.000000 0.000000
														}
													}
												}
											}
										}
									}
								}
							}
						}
					}
					JOINT RightShoulder
					{
						OFFSET -6.292450 5.785301 -0.669000
						CHANNELS 3 Xrotation Yrotation Zrotation
						JOINT RightShoulder_split
						{
							OFFSET -6.292450 5.785301 -0.669000
							CHANNELS 3 Xrotation Yrotation Zrotation
							JOINT RightArm
							{
								OFFSET -13.907140 -6.093903 1.965100
								CHANNELS 3 Xrotation Yrotation Zrotation
								JOINT RightForeArm
								{
									OFFSET -34.140198 0.000000 0.000000
									CHANNELS 3 Xrotation Yrotation Zrotation
									JOINT RightHand
									{
										OFFSET -40.960209 0.000000 0.000000
										CHANNELS 3 Xrotation Yrotation Zrotation
										JOINT RightHandThumb1
										{
											OFFSET -10.007050 -7.170456 9.573117
											CHANNELS 3 Xrotation Yrotation Zrotation
											JOINT RightHandThumb2
											{
												OFFSET -1.835007 -1.059448 1.059443
												CHANNELS 3 Xrotation Yrotation Zrotation
												JOINT RightHandThumb3
												{
													OFFSET -2.112267 -1.219513 1.219518
													CHANNELS 3 Xrotation Yrotation Zrotation
													JOINT RightHandThumb4
													{
														OFFSET -4.843834 -2.796585 2.796590
														CHANNELS 3 Xrotation Yrotation Zrotation
														End Site
														{
															OFFSET 0.000000 0.000000 0.000000
														}
													}
												}
											}
										}
										JOINT RightHandIndex1
										{
											OFFSET -18.389870 -0.922424 4.596786
											CHANNELS 3 Xrotation Yrotation Zrotation
											JOINT RightHandIndex2
											{
												OFFSET -4.711273 0.000000 0.000000
												CHANNELS 3 Xrotation Yrotation Zrotation
												JOINT RightHandIndex3
												{
													OFFSET -2.886131 0.000000 0.000000
													CHANNELS 3 Xrotation Yrotation Zrotation
													JOINT RightHandIndex4
													{
														OFFSET -6.145920 0.000000 0.000000
														CHANNELS 3 Xrotation Yrotation Zrotation
														End Site
														{
															OFFSET 0.000000 0.000000 0.000000
														}
													}
												}
											}
										}
										JOINT RightHandMiddle1
										{
											OFFSET -18.013008 0.000000 0.000000
											CHANNELS 3 Xrotation Yrotation Zrotation
											JOINT RightHandMiddle2
											{
												OFFSET -4.946693 0.000000 0.000000
												CHANNELS 3 Xrotation Yrotation Zrotation
												JOINT RightHandMiddle3
												{
													OFFSET -3.342232 0.000000 0.000000
													CHANNELS 3 Xrotation Yrotation Zrotation
													JOINT RightHandMiddle4
													{
														OFFSET -4.461754 0.000000 0.000000
														CHANNELS 3 Xrotation Yrotation Zrotation
														End Site
														{
															OFFSET 0.000000 0.000000 0.000000
														}
													}
												}
											}
										}
										JOINT RightHandRing1
										{
											OFFSET -15.849876 -0.102936 -4.126237
											CHANNELS 3 Xrotation Yrotation Zrotation
											JOINT RightHandRing2
											{
												OFFSET -3.527054 0.000000 0.000000
												CHANNELS 3 Xrotation Yrotation Zrotation
												JOINT RightHandRing3
												{
													OFFSET -2.961098 0.000000 0.000000
													CHANNELS 3 Xrotation Yrotation Zrotation
													JOINT RightHandRing4
													{
														OFFSET -4.927200 0.000000 0.000000
														CHANNELS 3 Xrotation Yrotation Zrotation
														End Site
														{
															OFFSET 0.000000 0.000000 0.000000
														}
													}
												}
											}
										}
										JOINT RightHandPinky1
										{
											OFFSET -12.791786 -0.832077 -6.799222
											CHANNELS 3 Xrotation Yrotation Zrotation
											JOINT RightHandPinky2
											{
												OFFSET -3.327133 0.000000 0.000000
												CHANNELS 3 Xrotation Yrotation Zrotation
												JOINT RightHandPinky3
												{
													OFFSET -3.014900 0.000000 0.000000
													CHANNELS 3 Xrotation Yrotation Zrotation
													JOINT RightHandPinky4
													{
														OFFSET -5.847786 0.000000 0.000000
														CHANNELS 3 Xrotation Yrotation Zrotation
														End Site
														{
															OFFSET 0.000000 0.000000 0.000000
														}
													}
												}
											}
										}
									}
								}
							}
						}
					}
				}
			}
		}
	}
	JOINT LeftUpLeg
	{
		OFFSET 13.026900 -6.336304 -1.092800
		CHANNELS 3 Xrotation Yrotation Zrotation
		JOINT LeftLeg
		{
			OFFSET 0.524474 -46.096886 9.782700
			CHANNELS 3 Xrotation Yrotation Zrotation
			JOINT LeftFoot
			{
				OFFSET -0.524474 -53.427422 -12.948200
				CHANNELS 3 Xrotation Yrotation Zrotation
				JOINT LeftToeBase
				{
					OFFSET 0.192200 -14.009700 16.364100
					CHANNELS 3 Xrotation Yrotation Zrotation
					JOINT LeftToe_End
					{
						OFFSET -1.784700 -0.561700 9.474800
						CHANNELS 3 Xrotation Yrotation Zrotation
						End Site
						{
							OFFSET 0.000000 0.000000 0.000000
						}
					}
				}
			}
		}
	}
	JOINT RightUpLeg
	{
		OFFSET -12.883000 -6.336304 -1.092800
		CHANNELS 3 Xrotation Yrotation Zrotation
		JOINT RightLeg
		{
			OFFSET -0.524587 -46.096825 9.782800
			CHANNELS 3 Xrotation Yrotation Zrotation
			JOINT RightFoot
			{
				OFFSET 0.524587 -53.427383 -12.948300
				CHANNELS 3 Xrotation Yrotation Zrotation
				JOINT RightToeBase
				{
					OFFSET -0.192200 -14.009700 16.364100
					CHANNELS 3 Xrotation Yrotation Zrotation
					JOINT RightToe_End
					{
						OFFSET 1.784700 -0.561700 9.474800
						CHANNELS 3 Xrotation Yrotation Zrotation
						End Site
						{
							OFFSET 0.000000 0.000000 0.000000
						}
					}
				}
			}
		}
	}
}
MOTION
Frames: 4
Frame Time: 0.016667
0.356487 118.054527 -0.823699 2.912922 -29.006543 0.903246 7.837639 -0.307564 -2.399433 1.099254 -0.880535 2.383668 0.000000 0.000000 0.000000 1.108681 -0.590400 2.446523 -3.841324 18.018999 -6.496516 -6.333204 13.021593 0.301389 0.000000 -0.000000 -0.000000 -0.055833 -8.758004 -0.067358 0.000000 0.000000 0.000000 -55.250787 0.329438 -41.449372 11.606991 -65.826057 13.026170 -50.191034 12.352947 4.610852 17.563632 -5.694005 -12.929211 10.852333 26.148382 8.654076 20.924877 51.116436 0.219811 -0.000002 0.000001 -0.000000 13.978255 1.203578 -55.006041 0.372677 1.163861 -65.441873 1.986572 2.154434 -57.665136 0.000000 0.000001 -0.000000 7.502548 1.175428 -63.755274 1.809520 1.478253 -64.569856 0.130986 -0.903800 -43.270795 0.000000 0.000000 -0.000001 8.574329 2.179102 -75.149006 -0.208041 1.014711 -57.856804 0.433185 1.760595 -53.580891 -0.000000 -0.000001 0.000000 10.030091 13.637042 -84.750237 0.878815 0.065147 -64.595496 1.137605 1.262760 -55.016190 -0.000000 0.000000 0.000002 4.849281 7.760130 5.560458 0.000000 0.000000 0.000000 -0.933513 -2.176876 61.845621 11.299292 18.943470 -3.987568 -0.459212 6.620142 5.830244 15.788503 -2.734488 -17.205873 -2.198346 -31.113557 7.361198 -6.563764 -4.145947 2.404838 0.000001 0.000003 0.000000 2.371236 -3.658864 8.486751 -2.131699 -2.469827 18.672219 -1.937601 -4.791117 14.170591 -0.000001 0.000000 -0.000003 -1.983659 -5.667161 13.658593 0.267050 -5.081396 26.987151 -0.669521 -1.182126 16.124808 -0.000000 0.000000 -0.000004 -3.231407 -8.564183 11.751476 4.036743 -4.043072 33.257175 2.103021 -3.154942 15.587818 0.000000 0.000000 -0.000001 -6.483213 -11.360895 23.256432 10.728497 -2.555671 34.821274 6.410101 -3.094549 15.311563 -0.000000 0.000000 0.000001 -15.834252 18.228240 11.841654 13.975616 12.904475 -0.956955 -0.251413 -3.818245 -5.804581 -0.145184 0.007824 -0.311389 -0.000000 0.000000 -0.000000 -7.698107 -1.707276 -8.153330 10.281373 9.450097 0.798815 -5.658275 -0.753810 6.746985 -1.288158 -0.027271 0.150331 -0.000000 0.000000 0.000000 
0.337977 118.050110 -0.806786 2.996849 -29.018182 0.944227 7.837639 -0.307295 -2.399138 1.099093 -0.876630 2.383002 0.000000 0.000000 0.000000 1.108488 -0.585941 2.445761 -3.844998 18.060113 -6.523146 -6.313228 13.058516 0.301026 -0.000000 -0.000000 -0.000000 -0.070036 -8.744140 -0.065998 0.000000 0.000000 0.000000 -54.884337 0.118795 -41.197597 11.633575 -65.908846 13.201947 -50.544363 12.176066 4.648536 17.563632 -5.694004 -12.929208 10.852333 26.148387 8.654077 20.924870 51.116432 0.219812 -0.000001 -0.000000 -0.000000 13.978255 1.203578 -55.006034 0.372679 1.163860 -65.441880 1.986573 2.154433 -57.665129 -0.000000 -0.000002 -0.000001 7.502549 1.175429 -63.755267 1.809521 1.478251 -64.569856 0.130986 -0.903798 -43.270795 -0.000000 -0.000001 -0.000000 8.574328 2.179102 -75.148999 -0.208042 1.014711 -57.856811 0.433185 1.760596 -53.580894 0.000000 0.000000 -0.000001 10.030088 13.637041 -84.750230 0.878815 0.065147 -64.595496 1.137605 1.262760 -55.016194 0.000000 -0.000000 0.000002 4.841098 7.792201 5.599185 0.000000 0.000000 0.000000 -0.876147 -2.203271 61.799757 11.304725 18.977114 -3.997577 -0.474801 6.723936 5.694303 15.788503 -2.734487 -17.205873 -2.198345 -31.113561 7.361195 -6.563762 -4.145948 2.404838 0.000002 0.000001 -0.000001 2.371240 -3.658864 8.486742 -2.131696 -2.469823 18.672183 -1.937595 -4.791120 14.170605 -0.000001 0.000000 0.000001 -1.983651 -5.667155 13.658564 0.267037 -5.081391 26.987167 -0.669521 -1.182132 16.124791 -0.000000 0.000000 -0.000000 -3.231406 -8.564182 11.751456 4.036759 -4.043070 33.257202 2.103007 -3.154942 15.587795 -0.000001 0.000000 -0.000001 -6.483208 -11.360894 23.256437 10.728492 -2.555672 34.821244 6.410106 -3.094547 15.311568 0.000000 -0.000000 -0.000002 -15.902694 18.215744 11.851939 13.988289 12.903697 -0.959951 -0.264526 -3.817082 -5.807117 -0.145181 0.007828 -0.311389 -0.000000 -0.000000 -0.000000 -7.766857 -1.707618 -8.142445 10.292803 9.457666 0.796697 -5.678395 -0.743863 6.735244 -1.278394 -0.027719 0.171743 0.000000 0.000000 -0.000000 
0.315166 118.042168 -0.788538 3.095139 -29.023192 0.987838 7.837757 -0.304110 -2.400349 1.098784 -0.869316 2.381754 0.000000 0.000000 0.000000 1.110465 -0.579794 2.444749 -3.800850 18.130551 -6.587807 -6.340686 13.102959 0.312260 0.000000 0.000000 0.000000 -0.072283 -8.728853 -0.064793 0.000000 0.000000 0.000000 -54.827575 0.180458 -41.050424 11.670731 -66.019085 13.220310 -50.602949 12.088218 4.574814 17.563628 -5.694004 -12.929207 10.852332 26.148385 8.654079 20.924872 51.116436 0.219811 -0.000001 -0.000001 -0.000001 13.978256 1.203580 -55.006034 0.372681 1.163860 -65.441880 1.986574 2.154434 -57.665129 -0.000000 -0.000001 -0.000001 7.502549 1.175429 -63.755267 1.809520 1.478252 -64.569863 0.130987 -0.903799 -43.270799 0.000000 0.000001 -0.000001 8.574328 2.179103 -75.148999 -0.208041 1.014711 -57.856811 0.433186 1.760596 -53.580894 0.000000 0.000001 -0.000000 10.030089 13.637042 -84.750237 0.878815 0.065147 -64.595496 1.137605 1.262760 -55.016190 0.000000 -0.000000 0.000003 4.839190 7.844300 5.594994 0.000000 0.000000 0.000000 -0.848542 -2.241866 61.787271 11.331118 18.903920 -3.971946 -0.529490 6.824010 5.581391 15.788505 -2.734488 -17.205877 -2.198346 -31.113557 7.361195 -6.563763 -4.145951 2.404836 -0.000001 -0.000000 0.000001 2.371252 -3.658863 8.486738 -2.131696 -2.469831 18.672219 -1.937609 -4.791119 14.170584 0.000000 0.000000 -0.000000 -1.983641 -5.667155 13.658562 0.267035 -5.081396 26.987179 -0.669518 -1.182126 16.124806 -0.000001 -0.000000 0.000001 -3.231397 -8.564182 11.751451 4.036752 -4.043071 33.257195 2.103016 -3.154940 15.587824 -0.000000 0.000000 -0.000001 -6.483209 -11.360898 23.256430 10.728495 -2.555667 34.821250 6.410095 -3.094549 15.311570 0.000000 0.000000 0.000002 -15.984017 18.172618 11.870228 14.005402 12.907453 -0.964832 -0.276376 -3.800935 -5.830920 -0.145182 0.007824 -0.311389 -0.000000 0.000000 0.000000 -7.862814 -1.716418 -8.136590 10.317617 9.488154 0.788930 -5.689648 -0.736696 6.728419 -1.278725 -0.027697 0.171030 0.000000 -0.000002 -0.000000 
0.292489 118.030495 -0.772151 3.192599 -29.020600 1.028917 7.832885 -0.291604 -2.396741 1.104963 -0.859948 2.374747 0.000000 0.000000 0.000000 1.116788 -0.570568 2.437568 -3.760153 18.197029 -6.652758 -6.378133 13.164525 0.327758 0.000000 0.000000 0.000000 -0.091585 -8.709467 -0.063617 0.000000 0.000000 0.000000 -54.824016 0.285216 -40.971511 11.705475 -66.122556 13.258872 -50.558495 12.058931 4.470700 17.563632 -5.694004 -12.929202 10.852333 26.148384 8.654079 20.924875 51.116432 0.219813 0.000000 -0.000001 0.000002 13.978255 1.203579 -55.006037 0.372677 1.163860 -65.441887 1.986572 2.154432 -57.665129 -0.000000 0.000000 -0.000000 7.502547 1.175427 -63.755267 1.809521 1.478251 -64.569856 0.130985 -0.903799 -43.270799 0.000000 -0.000001 -0.000000 8.574329 2.179102 -75.148999 -0.208043 1.014711 -57.856811 0.433185 1.760596 -53.580894 -0.000000 0.000000 0.000001 10.030090 13.637041 -84.750230 0.878815 0.065147 -64.595496 1.137605 1.262760 -55.016190 -0.000000 -0.000000 0.000001 4.835598 7.900899 5.599399 0.000000 0.000000 0.000000 -0.826514 -2.297776 61.813745 11.287203 18.781844 -4.000388 -0.510028 6.876276 5.554255 15.788505 -2.734488 -17.205877 -2.198347 -31.113557 7.361200 -6.563764 -4.145951 2.404834 0.000001 -0.000001 -0.000001 2.371244 -3.658862 8.486715 -2.131698 -2.469825 18.672199 -1.937592 -4.791124 14.170600 -0.000001 -0.000000 -0.000001 -1.983648 -5.667149 13.658558 0.267044 -5.081405 26.987167 -0.669517 -1.182125 16.124808 -0.000000 -0.000000 -0.000000 -3.231388 -8.564177 11.751445 4.036739 -4.043072 33.257188 2.103023 -3.154942 15.587808 -0.000000 -0.000000 0.000000 -6.483201 -11.360892 23.256436 10.728487 -2.555669 34.821254 6.410095 -3.094550 15.311580 -0.000000 0.000000 0.000001 -16.073373 18.109454 11.889043 14.044138 12.943824 -0.975624 -0.296084 -3.786386 -5.848113 -0.141172 0.007801 -0.311388 0.000000 0.000000 0.000000 -7.957258 -1.733239 -8.121022 10.351531 9.475641 0.784074 -5.713897 -0.734972 6.723353 -1.278230 -0.028001 0.184508 0.000000 0.000001 -0.000000 
